<mxfile host="drawio-plugin" modified="2021-12-17T12:26:19.118Z" agent="5.0 (Macintosh; Intel Mac OS X 12_0_1) AppleWebKit/537.36 (KHTML, like Gecko) Chrome/89.0.4389.114 Safari/537.36" etag="_UzwRvUo1vCM1Qnhf9vQ" version="14.7.4" type="embed"><diagram id="gz_SMofUfC3ktrrgK0aM" name="Page-1"><mxGraphModel dx="1125" dy="760" grid="0" gridSize="10" guides="1" tooltips="1" connect="1" arrows="1" fold="1" page="0" pageScale="1" pageWidth="850" pageHeight="1100" math="0" shadow="0"><root><mxCell id="0"/><mxCell id="1" parent="0"/><mxCell id="13" value="" style="ellipse;whiteSpace=wrap;html=1;aspect=fixed;rounded=1;fontSize=14;strokeColor=#000000;fillColor=#ffffff;" parent="1" vertex="1"><mxGeometry x="20.25" y="44.25" width="683.5" height="683.5" as="geometry"/></mxCell><mxCell id="6" value="" style="ellipse;whiteSpace=wrap;html=1;aspect=fixed;" parent="1" vertex="1"><mxGeometry x="183.5" y="213.5" width="357" height="357" as="geometry"/></mxCell><mxCell id="3" value="&lt;h1&gt;Clean Architecture&lt;/h1&gt;&lt;p&gt;For Work Schedule Project&lt;/p&gt;" style="text;html=1;strokeColor=none;fillColor=none;spacing=5;spacingTop=-20;whiteSpace=wrap;overflow=hidden;rounded=0;" parent="1" vertex="1"><mxGeometry x="-112" y="10" width="339" height="95" as="geometry"/></mxCell><mxCell id="4" value="Models&lt;br&gt;Service_Interface" style="ellipse;whiteSpace=wrap;html=1;aspect=fixed;dashed=1;" parent="1" vertex="1"><mxGeometry x="281" y="311" width="162" height="162" as="geometry"/></mxCell><mxCell id="7" value="Application Core" style="text;html=1;align=center;verticalAlign=middle;whiteSpace=wrap;rounded=0;fontSize=22;strokeColor=#000000;fillColor=#ffffff;" parent="1" vertex="1"><mxGeometry x="270" y="530" width="180" height="46" as="geometry"/></mxCell><mxCell id="8" value="Core" style="text;html=1;fillColor=none;align=center;verticalAlign=middle;whiteSpace=wrap;rounded=1;fontSize=18;strokeColor=#000000;" parent="1" vertex="1"><mxGeometry x="331.5" y="425" width="61" height="20" as="geometry"/></mxCell><mxCell id="9" value="Domain Service" style="text;html=1;fillColor=none;align=center;verticalAlign=middle;whiteSpace=wrap;rounded=1;fontSize=18;strokeColor=#000000;" parent="1" vertex="1"><mxGeometry x="227" y="281" width="81" height="55" as="geometry"/></mxCell><mxCell id="10" value="Impl. Service" style="text;html=1;strokeColor=none;fillColor=none;align=center;verticalAlign=middle;whiteSpace=wrap;rounded=0;fontSize=14;" parent="1" vertex="1"><mxGeometry x="213" y="462" width="109" height="20" as="geometry"/></mxCell><mxCell id="11" value="Infrastructure Interface&lt;br&gt;" style="text;html=1;strokeColor=none;fillColor=none;align=center;verticalAlign=middle;whiteSpace=wrap;rounded=0;fontSize=14;" parent="1" vertex="1"><mxGeometry x="316.5" y="246" width="91" height="20" as="geometry"/></mxCell><mxCell id="12" style="edgeStyle=orthogonalEdgeStyle;rounded=0;orthogonalLoop=1;jettySize=auto;html=1;exitX=0.5;exitY=1;exitDx=0;exitDy=0;fontSize=14;" parent="1" source="11" target="11" edge="1"><mxGeometry relative="1" as="geometry"/></mxCell><mxCell id="16" value="&lt;h1&gt;&lt;span&gt;Infrastructure&lt;/span&gt;&lt;/h1&gt;&lt;h1&gt;&lt;span style=&quot;font-size: 14px ; font-weight: 400&quot;&gt;Entities&amp;nbsp; &amp;nbsp;Impl. Infrastructure&amp;nbsp;&lt;/span&gt;&lt;/h1&gt;" style="text;html=1;fillColor=none;spacing=5;spacingTop=-20;whiteSpace=wrap;overflow=hidden;rounded=1;fontSize=14;strokeColor=#000000;align=center;" parent="1" vertex="1"><mxGeometry x="240" y="76.5" width="249" height="124.5" as="geometry"/></mxCell><mxCell id="17" value="&lt;h1&gt;&lt;span&gt;Persentation&lt;/span&gt;&lt;/h1&gt;&lt;h1 style=&quot;text-align: center ; font-size: 12px&quot;&gt;&lt;font style=&quot;font-size: 12px ; font-weight: normal&quot;&gt;Controller&lt;/font&gt;&lt;/h1&gt;&lt;h1 style=&quot;text-align: center ; font-size: 12px&quot;&gt;&lt;font style=&quot;font-size: 12px ; font-weight: normal&quot;&gt;Models&lt;/font&gt;&lt;/h1&gt;" style="text;html=1;fillColor=none;spacing=5;spacingTop=-20;whiteSpace=wrap;overflow=hidden;rounded=1;fontSize=14;strokeColor=#000000;" vertex="1" parent="1"><mxGeometry x="269" y="595" width="186" height="101" as="geometry"/></mxCell><mxCell id="18" value="&lt;h1&gt;Security&lt;/h1&gt;&lt;h1&gt;&lt;span style=&quot;font-size: 14px ; font-weight: 400&quot;&gt;AuthenticationService&lt;/span&gt;&lt;/h1&gt;&lt;div&gt;&lt;span style=&quot;font-size: 14px ; font-weight: 400&quot;&gt;AuthorizationService&lt;/span&gt;&lt;/div&gt;&lt;div&gt;&lt;span style=&quot;font-size: 14px ; font-weight: 400&quot;&gt;&lt;br&gt;&lt;/span&gt;&lt;/div&gt;&lt;div&gt;&lt;span style=&quot;font-size: 14px ; font-weight: 400&quot;&gt;UserAuthenticator&lt;/span&gt;&lt;/div&gt;" style="text;html=1;fillColor=none;spacing=5;spacingTop=-20;whiteSpace=wrap;overflow=hidden;rounded=1;fontSize=14;strokeColor=#000000;" vertex="1" parent="1"><mxGeometry x="554" y="270" width="132" height="212" as="geometry"/></mxCell><mxCell id="19" value="&lt;h1&gt;Test&lt;/h1&gt;&lt;h1&gt;&lt;span style=&quot;font-size: 14px ; font-weight: 400&quot;&gt;CoreTest&lt;/span&gt;&lt;/h1&gt;&lt;h1&gt;&lt;span style=&quot;font-size: 14px ; font-weight: 400&quot;&gt;DomianTest&amp;nbsp;&lt;/span&gt;&lt;/h1&gt;" style="text;html=1;fillColor=none;spacing=5;spacingTop=-20;whiteSpace=wrap;overflow=hidden;rounded=1;fontSize=14;strokeColor=#000000;" vertex="1" parent="1"><mxGeometry x="39" y="281" width="130" height="185" as="geometry"/></mxCell><mxCell id="21" value="Security Interface" style="text;html=1;strokeColor=none;fillColor=none;align=center;verticalAlign=middle;whiteSpace=wrap;rounded=0;fontSize=14;" vertex="1" parent="1"><mxGeometry x="448" y="376" width="91" height="20" as="geometry"/></mxCell></root></mxGraphModel></diagram></mxfile>